<svg width="32" height="38" viewBox="0 0 32 38" fill="none" xmlns="http://www.w3.org/2000/svg">
<path d="M29.3334 30.6668V25.6668H7.66675C4.90532 25.6668 2.66675 27.9054 2.66675 30.6668M10.6667 35.6668H24.0001C25.8669 35.6668 26.8003 35.6668 27.5134 35.3035C28.1406 34.9839 28.6505 34.474 28.9701 33.8468C29.3334 33.1338 29.3334 32.2003 29.3334 30.3335V7.66683C29.3334 5.79999 29.3334 4.86657 28.9701 4.15353C28.6505 3.52632 28.1406 3.01639 27.5134 2.69681C26.8003 2.3335 25.8669 2.3335 24.0001 2.3335H10.6667C7.86649 2.3335 6.46635 2.3335 5.3968 2.87846C4.45599 3.35783 3.69108 4.12273 3.21172 5.06354C2.66675 6.1331 2.66675 7.53323 2.66675 10.3335V27.6668C2.66675 30.4671 2.66675 31.8672 3.21172 32.9368C3.69108 33.8776 4.45599 34.6425 5.3968 35.1219C6.46635 35.6668 7.86649 35.6668 10.6667 35.6668Z" stroke="white" stroke-width="4" stroke-linecap="round" stroke-linejoin="round"/>
</svg>
