<svg width="39" height="34" viewBox="0 0 39 34" fill="none" xmlns="http://www.w3.org/2000/svg">
<path d="M19.5 32L19.3332 31.7499C18.1755 30.0133 17.5966 29.145 16.8318 28.5164C16.1547 27.9599 15.3746 27.5423 14.536 27.2877C13.5887 27 12.5452 27 10.458 27H8.16665C6.2998 27 5.36638 27 4.65334 26.6367C4.02614 26.3171 3.5162 25.8072 3.19662 25.18C2.83331 24.4669 2.83331 23.5335 2.83331 21.6667V7.33333C2.83331 5.46649 2.83331 4.53307 3.19662 3.82003C3.5162 3.19282 4.02614 2.68289 4.65334 2.36331C5.36638 2 6.2998 2 8.16665 2H8.83331C12.567 2 14.4338 2 15.8599 2.72662C17.1143 3.36578 18.1342 4.38565 18.7734 5.64006C19.5 7.06614 19.5 8.93298 19.5 12.6667M19.5 32V12.6667M19.5 32L19.6667 31.7499C20.8245 30.0133 21.4033 29.145 22.1681 28.5164C22.8452 27.9599 23.6254 27.5423 24.464 27.2877C25.4112 27 26.4548 27 28.5419 27H30.8333C32.7002 27 33.6336 27 34.3466 26.6367C34.9738 26.3171 35.4838 25.8072 35.8033 25.18C36.1666 24.4669 36.1666 23.5335 36.1666 21.6667V7.33333C36.1666 5.46649 36.1666 4.53307 35.8033 3.82003C35.4838 3.19282 34.9738 2.68289 34.3466 2.36331C33.6336 2 32.7002 2 30.8333 2H30.1666C26.433 2 24.5661 2 23.14 2.72662C21.8856 3.36578 20.8658 4.38565 20.2266 5.64006C19.5 7.06614 19.5 8.93298 19.5 12.6667" stroke="white" stroke-width="4" stroke-linecap="round" stroke-linejoin="round"/>
</svg>
