<svg width="39" height="39" viewBox="0 0 39 39" fill="none" xmlns="http://www.w3.org/2000/svg">
<path d="M17.8335 6.16664H10.8335C8.03323 6.16664 6.6331 6.16664 5.56354 6.71161C4.62273 7.19097 3.85783 7.95588 3.37846 8.89669C2.8335 9.96625 2.8335 11.3664 2.8335 14.1666V28.1666C2.8335 30.9669 2.8335 32.367 3.37846 33.4366C3.85783 34.3774 4.62273 35.1423 5.56354 35.6217C6.6331 36.1666 8.03323 36.1666 10.8335 36.1666H24.8335C27.6338 36.1666 29.0339 36.1666 30.1034 35.6217C31.0443 35.1423 31.8092 34.3774 32.2885 33.4366C32.8335 32.367 32.8335 30.9669 32.8335 28.1666V21.1666M12.8335 26.1666H15.6244C16.4397 26.1666 16.8473 26.1666 17.2309 26.0745C17.5711 25.9929 17.8962 25.8582 18.1944 25.6754C18.5308 25.4693 18.8191 25.181 19.3956 24.6045L35.3335 8.66664C36.7142 7.28593 36.7142 5.04735 35.3335 3.66664C33.9528 2.28593 31.7142 2.28592 30.3335 3.66663L14.3956 19.6045C13.819 20.181 13.5308 20.4693 13.3247 20.8057C13.1419 21.1039 13.0072 21.4291 12.9256 21.7692C12.8335 22.1528 12.8335 22.5605 12.8335 23.3758V26.1666Z" stroke="#344054" stroke-width="4" stroke-linecap="round" stroke-linejoin="round"/>
</svg>
