<svg width="38" height="38" viewBox="0 0 38 38" fill="none" xmlns="http://www.w3.org/2000/svg">
<path d="M19 9.00016V35.6668M19 9.00016H13.1072C12.2389 9.00016 11.4062 8.64897 10.7922 8.02385C10.1783 7.39873 9.83334 6.55088 9.83334 5.66683C9.83334 4.78277 10.1783 3.93493 10.7922 3.30981C11.4062 2.68469 12.2389 2.3335 13.1072 2.3335C17.6905 2.3335 19 9.00016 19 9.00016ZM19 9.00016H24.8929C25.7611 9.00016 26.5938 8.64897 27.2078 8.02385C27.8218 7.39873 28.1667 6.55088 28.1667 5.66683C28.1667 4.78277 27.8218 3.93493 27.2078 3.30981C26.5938 2.68469 25.7611 2.3335 24.8929 2.3335C20.3095 2.3335 19 9.00016 19 9.00016ZM32.3333 17.3335V30.3335C32.3333 32.2003 32.3333 33.1338 31.97 33.8468C31.6505 34.474 31.1405 34.9839 30.5133 35.3035C29.8003 35.6668 28.8669 35.6668 27 35.6668L11 35.6668C9.13317 35.6668 8.19975 35.6668 7.48671 35.3035C6.8595 34.9839 6.34957 34.474 6.02999 33.8468C5.66668 33.1338 5.66668 32.2003 5.66668 30.3335V17.3335M2.33334 11.6668L2.33334 14.6668C2.33334 15.6003 2.33334 16.067 2.515 16.4235C2.67479 16.7371 2.92976 16.9921 3.24336 17.1518C3.59988 17.3335 4.06659 17.3335 5.00001 17.3335L33 17.3335C33.9334 17.3335 34.4001 17.3335 34.7567 17.1518C35.0703 16.9921 35.3252 16.7371 35.485 16.4235C35.6667 16.067 35.6667 15.6003 35.6667 14.6668V11.6668C35.6667 10.7334 35.6667 10.2667 35.485 9.91018C35.3252 9.59658 35.0703 9.34161 34.7567 9.18182C34.4001 9.00016 33.9334 9.00016 33 9.00016L5.00001 9.00016C4.06659 9.00016 3.59988 9.00016 3.24336 9.18182C2.92976 9.34161 2.67479 9.59658 2.515 9.91018C2.33334 10.2667 2.33334 10.7334 2.33334 11.6668Z" stroke="white" stroke-width="4" stroke-linecap="round" stroke-linejoin="round"/>
</svg>
