<svg width="39" height="35" viewBox="0 0 39 35" fill="none" xmlns="http://www.w3.org/2000/svg">
<path d="M21.0218 25.8333H32.9783M21.0218 25.8333L17.8333 32.5M21.0218 25.8333L25.7972 15.8484C26.182 15.0438 26.3744 14.6415 26.6376 14.5144C26.8666 14.4038 27.1335 14.4038 27.3624 14.5144C27.6257 14.6415 27.8181 15.0438 28.2029 15.8484L32.9783 25.8333M32.9783 25.8333L36.1667 32.5M2.83334 5.83333H12.8333M12.8333 5.83333H18.6667M12.8333 5.83333V2.5M18.6667 5.83333H22.8333M18.6667 5.83333C17.8398 10.7621 15.921 15.227 13.1093 18.974M16.1667 20.8333C15.1458 20.3747 14.1044 19.7368 13.1093 18.974M13.1093 18.974C10.855 17.2463 8.83795 14.8777 7.83334 12.5M13.1093 18.974C10.4348 22.5382 6.9524 25.453 2.83334 27.5" stroke="#344054" stroke-width="4" stroke-linecap="round" stroke-linejoin="round"/>
</svg>
