<svg width="38" height="35" viewBox="0 0 38 35" fill="none" xmlns="http://www.w3.org/2000/svg">
<path d="M28.9997 23.8948C31.4262 25.1138 33.5066 27.0699 35.0251 29.516C35.3258 30.0005 35.4762 30.2427 35.5282 30.578C35.6338 31.2596 35.1677 32.0976 34.533 32.3673C34.2206 32.5 33.8692 32.5 33.1664 32.5M25.6664 16.7204C28.1359 15.4931 29.8331 12.9448 29.8331 10C29.8331 7.05523 28.1359 4.50685 25.6664 3.2796M22.3331 10C22.3331 14.1421 18.9752 17.5 14.8331 17.5C10.6909 17.5 7.33306 14.1421 7.33306 10C7.33306 5.85786 10.6909 2.5 14.8331 2.5C18.9752 2.5 22.3331 5.85786 22.3331 10ZM3.26511 29.0639C5.92229 25.0743 10.1153 22.5 14.8331 22.5C19.5508 22.5 23.7438 25.0743 26.401 29.0639C26.9831 29.9379 27.2742 30.3749 27.2407 30.9332C27.2146 31.3679 26.9296 31.9 26.5823 32.1627C26.1363 32.5 25.5228 32.5 24.2958 32.5H5.37032C4.14335 32.5 3.52986 32.5 3.08379 32.1627C2.73648 31.9 2.45154 31.3679 2.42545 30.9332C2.39194 30.3749 2.683 29.9379 3.26511 29.0639Z" stroke="#344054" stroke-width="4" stroke-linecap="round" stroke-linejoin="round"/>
</svg>
